ffmpeg version 4.4 Copyright (c) 2000-2021 the FFmpeg developers
  built with Apple clang version 11.0.0 (clang-1100.0.33.17)
  configuration: --prefix=/usr/local/Cellar/ffmpeg/4.4_2 --enable-shared --enable-pthreads --enable-version3 --cc=clang --host-cflags= --host-ldflags= --enable-ffplay --enable-gnutls --enable-gpl --enable-libaom --enable-libbluray --enable-libdav1d --enable-libmp3lame --enable-libopus --enable-librav1e --enable-librubberband --enable-libsnappy --enable-libsrt --enable-libtesseract --enable-libtheora --enable-libvidstab --enable-libvorbis --enable-libvpx --enable-libwebp --enable-libx264 --enable-libx265 --enable-libxml2 --enable-libxvid --enable-lzma --enable-libfontconfig --enable-libfreetype --enable-frei0r --enable-libass --enable-libopencore-amrnb --enable-libopencore-amrwb --enable-libopenjpeg --enable-libspeex --enable-libsoxr --enable-libzmq --enable-libzimg --disable-libjack --disable-indev=jack --enable-avresample --enable-videotoolbox
  libavutil      56. 70.100 / 56. 70.100
  libavcodec     58.134.100 / 58.134.100
  libavformat    58. 76.100 / 58. 76.100
  libavdevice    58. 13.100 / 58. 13.100
  libavfilter     7.110.100 /  7.110.100
  libavresample   4.  0.  0 /  4.  0.  0
  libswscale      5.  9.100 /  5.  9.100
  libswresample   3.  9.100 /  3.  9.100
  libpostproc    55.  9.100 / 55.  9.100
[AVFoundation indev @ 0x7fef1f706840] Configuration of video device failed, falling back to default.
[avfoundation @ 0x7fef1f802c00] Stream #0: not enough frames to estimate rate; consider increasing probesize
Input #0, avfoundation, from '1':
  Duration: N/A, start: 4380.629667, bitrate: N/A
  Stream #0:0: Video: rawvideo (UYVY / 0x59565955), uyvy422, 1440x900, 1000k tbr, 1000k tbn, 1000k tbc
Stream mapping:
  Stream #0:0 -> #0:0 (rawvideo (native) -> h264 (libx264))
Press [q] to stop, [?] for help
[libx264 @ 0x7fef20a33a00] MB rate (5130000000) > level limit (16711680)
[libx264 @ 0x7fef20a33a00] using cpu capabilities: MMX2 SSE2Fast SSSE3 SSE4.2 AVX FMA3 BMI2 AVX2
[libx264 @ 0x7fef20a33a00] profile High, level 6.2, 4:2:0, 8-bit
[libx264 @ 0x7fef20a33a00] 264 - core 163 r3060 5db6aa6 - H.264/MPEG-4 AVC codec - Copyleft 2003-2021 - http://www.videolan.org/x264.html - options: cabac=1 ref=3 deblock=1:0:0 analyse=0x3:0x113 me=hex subme=7 psy=1 psy_rd=1.00:0.00 mixed_ref=1 me_range=16 chroma_me=1 trellis=1 8x8dct=1 cqm=0 deadzone=21,11 fast_pskip=1 chroma_qp_offset=-2 threads=6 lookahead_threads=1 sliced_threads=0 nr=0 decimate=1 interlaced=0 bluray_compat=0 constrained_intra=0 bframes=3 b_pyramid=2 b_adapt=1 b_bias=0 direct=1 weightb=1 open_gop=0 weightp=2 keyint=250 keyint_min=25 scenecut=40 intra_refresh=0 rc_lookahead=40 rc=crf mbtree=1 crf=23.0 qcomp=0.60 qpmin=0 qpmax=69 qpstep=4 ip_ratio=1.40 aq=1:1.00
Output #0, matroska, to 'test-navigation-links.mkv':
  Metadata:
    encoder         : Lavf58.76.100
  Stream #0:0: Video: h264 (H264 / 0x34363248), yuv420p(tv, progressive), 1440x900, q=2-31, 1000k fps, 1k tbn
    Metadata:
      encoder         : Lavc58.134.100 libx264
    Side data:
      cpb: bitrate max/min/avg: 0/0/0 buffer size: 0 vbv_delay: N/A
frame=    1 fps=0.0 q=0.0 size=       1kB time=00:00:00.00 bitrate=N/A speed=   0x    frame=   16 fps=0.0 q=0.0 size=       1kB time=00:00:00.00 bitrate=N/A speed=   0x    frame=   31 fps= 31 q=0.0 size=       1kB time=00:00:00.00 bitrate=N/A speed=   0x    frame=   47 fps= 30 q=0.0 size=       1kB time=00:00:00.00 bitrate=N/A speed=   0x    frame=   62 fps= 30 q=29.0 size=       1kB time=00:00:00.33 bitrate=  14.5kbits/s speed=0.16x    frame=   77 fps= 30 q=29.0 size=       1kB time=00:00:00.83 bitrate=   5.8kbits/s speed=0.323x    frame=   92 fps= 30 q=29.0 size=       1kB time=00:00:01.33 bitrate=   3.6kbits/s speed=0.432x    frame=  107 fps= 30 q=29.0 size=       1kB time=00:00:01.86 bitrate=   2.6kbits/s speed=0.52x    frame=  122 fps= 30 q=29.0 size=       1kB time=00:00:02.36 bitrate=   2.0kbits/s speed=0.577x    frame=  138 fps= 30 q=29.0 size=       1kB time=00:00:02.90 bitrate=   1.7kbits/s speed=0.63x    frame=  152 fps= 30 q=29.0 size=       1kB time=00:00:03.36 bitrate=   1.4kbits/s speed=0.658x    frame=  167 fps= 30 q=29.0 size=       1kB time=00:00:03.86 bitrate=   1.3kbits/s speed=0.688x    frame=  182 fps= 30 q=29.0 size=       1kB time=00:00:04.36 bitrate=   1.1kbits/s speed=0.713x    frame=  198 fps= 30 q=29.0 size=     256kB time=00:00:04.90 bitrate= 427.9kbits/s speed=0.739x    frame=  209 fps= 28 q=-1.0 Lsize=     476kB time=00:00:06.96 bitrate= 559.8kbits/s speed=0.93x    
video:474kB audio:0kB subtitle:0kB other streams:0kB global headers:0kB muxing overhead: 0.425548%
[libx264 @ 0x7fef20a33a00] frame I:1     Avg QP:18.40  size: 43834
[libx264 @ 0x7fef20a33a00] frame P:55    Avg QP:18.30  size:  7411
[libx264 @ 0x7fef20a33a00] frame B:153   Avg QP:23.69  size:   218
[libx264 @ 0x7fef20a33a00] consecutive B-frames:  1.0%  2.9%  4.3% 91.9%
[libx264 @ 0x7fef20a33a00] mb I  I16..4: 19.2% 65.5% 15.3%
[libx264 @ 0x7fef20a33a00] mb P  I16..4:  2.7%  2.6%  2.4%  P16..4:  1.8%  0.3%  0.1%  0.0%  0.0%    skip:90.2%
[libx264 @ 0x7fef20a33a00] mb B  I16..4:  0.1%  0.2%  0.0%  B16..8:  2.7%  0.1%  0.0%  direct: 0.0%  skip:96.9%  L0:47.3% L1:52.5% BI: 0.2%
[libx264 @ 0x7fef20a33a00] 8x8 transform intra:42.0% inter:50.7%
[libx264 @ 0x7fef20a33a00] coded y,uvDC,uvAC intra: 18.8% 9.0% 6.4% inter: 0.1% 0.1% 0.0%
[libx264 @ 0x7fef20a33a00] i16 v,h,dc,p: 30% 68%  1%  1%
[libx264 @ 0x7fef20a33a00] i8 v,h,dc,ddl,ddr,vr,hd,vl,hu: 46% 19% 33%  0%  0%  0%  0%  0%  1%
[libx264 @ 0x7fef20a33a00] i4 v,h,dc,ddl,ddr,vr,hd,vl,hu: 35% 30% 14%  2%  4%  4%  4%  3%  4%
[libx264 @ 0x7fef20a33a00] i8c dc,h,v,p: 74% 23%  3%  1%
[libx264 @ 0x7fef20a33a00] Weighted P-Frames: Y:0.0% UV:0.0%
[libx264 @ 0x7fef20a33a00] ref P L0: 66.6%  5.6% 24.8%  3.0%
[libx264 @ 0x7fef20a33a00] ref B L0: 72.0% 25.6%  2.4%
[libx264 @ 0x7fef20a33a00] ref B L1: 96.6%  3.4%
[libx264 @ 0x7fef20a33a00] kb/s:548.83
